<svg width="294" height="307" viewBox="0 0 294 307" fill="none" xmlns="http://www.w3.org/2000/svg">
<circle cx="79.5" cy="227.5" r="79.5" fill="url(#paint0_linear_1_47)"/>
<path d="M110.5 69.5C103.7 126.3 77 147.167 64.5 150.5L86 164L130.5 201.5C136.5 197.833 148.2 189.6 147 186C145.8 182.4 149.833 153.167 152 139C168 89 204 110.833 220 128L229.5 132.5C241.333 125.667 259.7 110.8 238.5 106C217.3 101.2 204.5 77.6667 201.5 67.5C173.5 43.8333 117.3 12.7 110.5 69.5Z" fill="#C0161E"/>
<circle cx="256.5" cy="138.5" r="37.5" fill="url(#paint1_linear_1_47)"/>
<ellipse cx="155.5" cy="50.5" rx="49.5" ry="50.5" fill="url(#paint2_linear_1_47)"/>
<circle cx="248" cy="56" r="25" fill="#575555"/>
<defs>
<linearGradient id="paint0_linear_1_47" x1="118" y1="160.5" x2="21.5" y2="280" gradientUnits="userSpaceOnUse">
<stop stop-color="#CB1922"/>
<stop offset="0.983264" stop-color="#920A0F"/>
</linearGradient>
<linearGradient id="paint1_linear_1_47" x1="274.66" y1="106.896" x2="229.142" y2="163.264" gradientUnits="userSpaceOnUse">
<stop stop-color="#920A0F"/>
<stop offset="0.352893" stop-color="#C0161E"/>
</linearGradient>
<linearGradient id="paint2_linear_1_47" x1="179.472" y1="7.94026" x2="157.66" y2="67.4961" gradientUnits="userSpaceOnUse">
<stop stop-color="#920A0F"/>
<stop offset="0.833333" stop-color="#C0161E"/>
</linearGradient>
</defs>
</svg>
